# xmcd
#
# Track frame offsets:
#	150
#	12340
#	22228
#	35847
#	43349
#	54360
#	68062
#	78859
#	97365
#	114073
#	123798
#	134140
#	148979
#	157562
#	169120
#	184450
#	196275
#
# Disc length: 2770 seconds
#
# Revision: 0
# Processed by: cddbd v1.5.1PL2 Copyright (c) Steve Scherf et al.
# Submitted via: audiograbber 1.80
#
DISCID=f30ad011
DTITLE=El;vis Presley - Legendary Disk 1 of 3
DYEAR=2000
DGENRE=Rock and Roll
TTITLE0=The Last Farewell  
TTITLE1=I Dont Believe In If Anymore
TTITLE2=Streets Of London
TTITLE3=Durham Town (The Leavin')
TTITLE4=The First Hello, The Last Goodbye
TTITLE5=New World In The Morning
TTITLE6=The Wind Beneath My Wings
TTITLE7=Somewhere My Love
TTITLE8=Weekend In England
TTITLE9=Fire And Rain
TTITLE10=Calpso
TTITLE11=Yellow Bird
TTITLE12=One Day At A Time
TTITLE13=A Man Without Love
TTITLE14=Time In A Bottle
TTITLE15=Hello, Good Morning,Happy Day
TTITLE16=The Skye Boat Song
EXTD=Executive Produces - Mark Rhodes and Peter Harding\nLicencing Manager - Rebe
EXTD=cca King\nMastering - Bruce Sheldrick\nDesign - Giulietta Pellascio, Desig
EXTD=nxbent\nThis Compilation 2000 BMG Australia Limited
EXTT0=
EXTT1=
EXTT2=
EXTT3=
EXTT4=
EXTT5=
EXTT6=
EXTT7=
EXTT8=
EXTT9=
EXTT10=
EXTT11=
EXTT12=
EXTT13=
EXTT14=
EXTT15=
EXTT16=
PLAYORDER=
